<svg xmlns="http://www.w3.org/2000/svg" style="display:none">
  <defs>
    <linearGradient id="brand" x1="0" y1="0" x2="1" y2="1">
      <stop offset="0%" stop-color="#2563EB"/>
      <stop offset="100%" stop-color="#06B6D4"/>
    </linearGradient>
  </defs>
  <symbol id="logo" viewBox="0 0 36 36">
    <rect width="36" height="36" rx="9" fill="url(#brand)"/>
    <path d="M12 24c4-8 8-4 12-12" stroke="#fff" stroke-width="2.5" stroke-linecap="round" stroke-linejoin="round" fill="none"/>
    <path d="M12 12c4 8 8 4 12 12" stroke="#fff" stroke-width="2.5" stroke-linecap="round" stroke-linejoin="round" fill="none" opacity="0.6"/>
  </symbol>
  <symbol id="products" viewBox="0 0 24 24" fill="none" stroke="currentColor" stroke-width="2">
    <path d="M20 7l-8-4-8 4m16 0l-8 4m8-4v10l-8 4m0-10L4 7m8 4v10M4 7v10l8 4"/>
  </symbol>
  <symbol id="clients" viewBox="0 0 24 24" fill="none" stroke="currentColor" stroke-width="2">
    <path d="M17 21v-2a4 4 0 00-4-4H5a4 4 0 00-4 4v2"/>
    <circle cx="9" cy="7" r="4"/>
    <path d="M23 21v-2a4 4 0 00-3-3.87"/>
    <path d="M16 3.13a4 4 0 010 7.75"/>
  </symbol>
  <symbol id="login" viewBox="0 0 24 24" fill="none" stroke="currentColor" stroke-width="2">
    <path d="M15 3h4a2 2 0 012 2v14a2 2 0 01-2 2h-4"/>
    <polyline points="10 17 15 12 10 7"/>
    <line x1="15" y1="12" x2="3" y2="12"/>
  </symbol>
</svg>
